<?xml version="1.0" encoding="UTF-8" standalone="no"?>
<!DOCTYPE svg PUBLIC "-//W3C//DTD SVG 1.1//EN" "http://www.w3.org/Graphics/SVG/1.1/DTD/svg11.dtd">
<svg width="100%" height="100%" viewBox="0 0 3350 1614" version="1.1" xmlns="http://www.w3.org/2000/svg" xmlns:xlink="http://www.w3.org/1999/xlink" xml:space="preserve" xmlns:serif="http://www.serif.com/" style="fill-rule:evenodd;clip-rule:evenodd;stroke-linejoin:round;stroke-miterlimit:2;">
    <g id="LOGO">
        <g transform="matrix(1,0,0,1,2818.07,904.926)">
            <path d="M0,-195.852L-112.138,-195.852L-112.973,-382.228L-187.992,-382.228L-187.992,-195.852L-239.546,-195.852L-239.546,-128.748L-187.992,-128.748L-187.992,170.602L-111.357,170.602L-112.138,-128.748L0,-128.748L0,-195.852ZM-2099.77,106.621C-2162.97,106.621 -2210.34,55.29 -2210.34,-13.431C-2210.34,-82.151 -2162.97,-133.483 -2099.77,-133.483C-2036.57,-133.483 -1989.19,-82.151 -1989.19,-13.431C-1989.19,55.29 -2036.57,106.615 -2099.78,106.615L-2099.77,106.621ZM-2093.47,-204.546C-2136.89,-205.014 -2178.8,-188.586 -2210.34,-158.733L-2211.12,-382.228L-2286.14,-382.228L-2286.14,170.598L-2208.72,170.598L-2208.72,133.477C-2177.09,161.943 -2136.03,177.687 -2093.47,177.675C-1989.2,177.675 -1910.22,94.742 -1910.22,-13.439C-1910.22,-121.62 -1989.19,-204.546 -2093.47,-204.546M-1592.77,41.072C-1624.37,60.802 -1640.92,77.411 -1653.57,103.439C-1658.8,113.855 -1669.57,120.322 -1681.22,120.048C-1731.77,120.048 -1789.4,53.668 -1789.4,-4.742C-1789.4,-70.285 -1741.24,-119.276 -1675.7,-119.276C-1613.52,-119.041 -1563.31,-68.448 -1563.55,-6.273L-1563.55,-6.268C-1563.55,-5.762 -1563.56,-5.256 -1563.56,-4.741C-1563.56,15.764 -1570.64,27.635 -1592.77,41.072L-1592.77,41.072ZM-1674.92,-204.546C-1703.88,-204.612 -1732.47,-198.074 -1758.52,-185.428C-1822.93,-153.962 -1863.52,-88.285 -1862.86,-16.608C-1862.86,77.413 -1775.18,186.376 -1700.17,186.376C-1681.19,186.226 -1663.62,176.387 -1653.57,160.293C-1622.75,113.699 -1591.15,86.891 -1544.61,66.324C-1501.13,47.375 -1489.32,28.425 -1489.32,-19.729C-1489.32,-124.008 -1570.63,-204.544 -1674.91,-204.544L-1674.92,-204.546ZM-1170.25,-195.852L-1170.25,-2.397C-1170.25,67.103 -1204.19,107.399 -1263.43,107.399C-1322.67,107.399 -1356.62,67.103 -1356.62,-2.397L-1356.62,-195.852L-1434.03,-195.852L-1434.03,0.779C-1434.03,109.795 -1368.49,178.46 -1263.43,178.46C-1158.37,178.46 -1092.83,109.795 -1092.83,0.779L-1092.83,-195.852L-1170.25,-195.852ZM-732.737,-195.852L-843.259,87.669L-954.616,-195.852L-1041.51,-195.852L-886.73,170.598L-807.755,170.598L-652.925,-195.85L-732.737,-195.852Z" style="fill:rgb(17,19,60);fill-rule:nonzero;"/>
        </g>
        <g transform="matrix(1,0,0,1,2265.19,931.637)">
            <path d="M-0.002,-77.459L202.707,-77.459C196.198,-124.071 157.608,-159.557 110.615,-162.142C51.664,-165.525 10.053,-133.673 -0.002,-77.459ZM281.577,-15.382L-1.555,-15.382C4.163,20.182 18.299,49.738 50.418,67.751C67.37,76.858 86.354,81.517 105.595,81.295C138.979,81.758 170.442,75.095 197.351,53.891C205.48,46.854 213.234,39.395 220.582,31.546L272.359,82.053C262.017,94.497 250.043,105.488 236.761,114.73C194.053,144.581 146.265,155.562 95,152.713C53.431,151.263 13.69,135.269 -17.293,107.518C-52.35,75.994 -70.875,35.749 -76.066,-10.901C-81.467,-51.078 -75.294,-91.962 -58.272,-128.753C-31.185,-185.324 14.317,-217.003 75.246,-226.389C112.859,-233.021 151.606,-227.665 186.01,-211.077C234.216,-187.287 262.185,-147.011 275.571,-95.596C282.253,-69.415 284.286,-42.265 281.577,-15.382" style="fill:rgb(17,19,60);fill-rule:nonzero;"/>
        </g>
    </g>
</svg>
