<svg width="146" height="153" viewBox="0 0 146 153" fill="none" xmlns="http://www.w3.org/2000/svg">
<path d="M73.4508 0.000134237C62.1341 -0.0213398 50.9611 2.53387 40.7787 7.47205C28.4458 13.4967 18.071 22.8905 10.8549 34.5663C3.63881 46.2422 -0.123594 59.7227 0.00309718 73.4478C0.00309718 110.184 34.2646 152.77 63.5758 152.77C67.2245 152.747 70.8083 151.803 73.9943 150.024C77.1804 148.246 79.8654 145.692 81.8 142.598C93.8492 124.374 106.191 113.91 124.385 105.874C141.372 98.47 146 91.0405 146 72.2442C146 31.4898 114.214 0.0128483 73.472 0.0128483M116.99 78.1013C116.99 86.1157 114.226 90.7523 105.576 96.0077C93.2304 103.717 86.7629 110.201 81.8085 120.377C80.8074 122.371 79.2607 124.04 77.3482 125.19C75.4357 126.339 73.2361 126.922 71.0054 126.87C51.2512 126.87 28.7338 100.924 28.7338 78.1013C28.7338 52.4815 47.547 33.3377 73.1668 33.3377C84.8292 33.387 95.9947 38.0653 104.209 46.344C112.423 54.6227 117.014 65.8244 116.973 77.4868C116.973 77.686 116.973 77.8852 116.973 78.0886" fill="#11133C"/>
</svg>
